<svg width="17" height="15" viewBox="0 0 17 15" fill="none" xmlns="http://www.w3.org/2000/svg">
<path d="M16.3298 10.6324H5.04509L5.61169 9.50002L15.026 9.48329C15.3444 9.48329 15.6173 9.26016 15.6741 8.95149L16.9779 1.79084C17.012 1.60304 16.9608 1.40966 16.8357 1.26276C16.7739 1.19047 16.6968 1.13223 16.6098 1.0921C16.5227 1.05196 16.4278 1.03089 16.3317 1.03033L4.35531 0.991286L4.25298 0.518992C4.18855 0.217764 3.91188 -0.00164795 3.59731 -0.00164795H0.669544C0.492131 -0.00164795 0.321986 0.0675059 0.196536 0.190601C0.071087 0.313695 0.000610352 0.480648 0.000610352 0.65473C0.000610352 0.828812 0.071087 0.995764 0.196536 1.11886C0.321986 1.24195 0.492131 1.31111 0.669544 1.31111H3.05534L3.50256 3.39738L4.60355 8.62795L3.1861 10.8983C3.11249 10.9958 3.06815 11.1116 3.0581 11.2325C3.04806 11.3534 3.0727 11.4747 3.12925 11.5826C3.24295 11.8039 3.47224 11.9433 3.72617 11.9433H4.91623C4.66252 12.274 4.52549 12.6767 4.52586 13.0906C4.52586 14.143 5.39756 14.9984 6.47012 14.9984C7.54269 14.9984 8.41439 14.143 8.41439 13.0906C8.41439 12.6759 8.27416 12.2724 8.02402 11.9433H11.0769C10.8232 12.274 10.6861 12.6767 10.6865 13.0906C10.6865 14.143 11.5582 14.9984 12.6308 14.9984C13.7033 14.9984 14.575 14.143 14.575 13.0906C14.575 12.6759 14.4348 12.2724 14.1846 11.9433H16.3317C16.6993 11.9433 17.0006 11.6495 17.0006 11.2869C16.9995 11.113 16.9284 10.9466 16.8027 10.824C16.677 10.7014 16.507 10.6325 16.3298 10.6324ZM4.63387 2.28545L15.5453 2.32078L14.4765 8.19285L5.90541 8.20772L4.63387 2.28545ZM6.47012 13.6782C6.14039 13.6782 5.8713 13.4141 5.8713 13.0906C5.8713 12.767 6.14039 12.503 6.47012 12.503C6.79985 12.503 7.06894 12.767 7.06894 13.0906C7.06894 13.2464 7.00585 13.3959 6.89355 13.5061C6.78125 13.6163 6.62894 13.6782 6.47012 13.6782ZM12.6308 13.6782C12.301 13.6782 12.0319 13.4141 12.0319 13.0906C12.0319 12.767 12.301 12.503 12.6308 12.503C12.9605 12.503 13.2296 12.767 13.2296 13.0906C13.2296 13.2464 13.1665 13.3959 13.0542 13.5061C12.9419 13.6163 12.7896 13.6782 12.6308 13.6782Z" fill="#FEFEFE"/>
</svg>
